<svg xmlns="http://www.w3.org/2000/svg" width="800" height="600" viewBox="0 0 800 600">
  <defs>
    <linearGradient id="sky" x1="0" x2="0" y1="0" y2="1">
      <stop offset="0" stop-color="#87CEEB"/>
      <stop offset="1" stop-color="#E0F6FF"/>
    </linearGradient>
    <linearGradient id="building" x1="0" x2="1" y1="0" y2="1">
      <stop offset="0" stop-color="#2F4F4F"/>
      <stop offset="1" stop-color="#1C1C1C"/>
    </linearGradient>
  </defs>
  <rect width="800" height="600" fill="url(#sky)"/>
  <ellipse cx="400" cy="510" rx="260" ry="70" fill="#696969" opacity="0.3"/>
  <rect x="120" y="100" width="560" height="420" fill="url(#building)" rx="8"/>
  <g id="window">
    <rect x="160" y="140" width="48" height="48" fill="#4169E1" stroke="#FFD700" stroke-width="2" rx="3"/>
    <line x1="184" y1="140" x2="184" y2="188" stroke="#FFD700" stroke-width="1"/>
    <line x1="160" y1="164" x2="208" y2="164" stroke="#FFD700" stroke-width="1"/>
  </g>
  <use href="#window" x="70" y="0"/>
  <use href="#window" x="140" y="0"/>
  <use href="#window" x="210" y="0"/>
  <use href="#window" x="280" y="0"/>
  <g id="window2">
    <rect x="160" y="220" width="48" height="48" fill="#4169E1" stroke="#FFD700" stroke-width="2" rx="3"/>
    <line x1="184" y1="220" x2="184" y2="268" stroke="#FFD700" stroke-width="1"/>
    <line x1="160" y1="244" x2="208" y2="244" stroke="#FFD700" stroke-width="1"/>
  </g>
  <use href="#window2" x="70" y="0"/>
  <use href="#window2" x="140" y="0"/>
  <use href="#window2" x="210" y="0"/>
  <use href="#window2" x="280" y="0"/>
  <g id="window3">
    <rect x="160" y="300" width="48" height="48" fill="#4169E1" stroke="#FFD700" stroke-width="2" rx="3"/>
    <line x1="184" y1="300" x2="184" y2="348" stroke="#FFD700" stroke-width="1"/>
    <line x1="160" y1="324" x2="208" y2="324" stroke="#FFD700" stroke-width="1"/>
  </g>
  <use href="#window3" x="70" y="0"/>
  <use href="#window3" x="140" y="0"/>
  <use href="#window3" x="210" y="0"/>
  <use href="#window3" x="280" y="0"/>
  <circle cx="100" cy="70" r="45" fill="#FFD700" opacity="0.9"/>
  <text x="400" y="550" font-family="Georgia, serif" font-size="36" font-weight="bold" fill="#FFD700" text-anchor="middle">HILTON MIDTOWN</text>
</svg>