<svg xmlns="http://www.w3.org/2000/svg" width="800" height="600" viewBox="0 0 800 600">
  <defs>
    <linearGradient id="sky" x1="0" x2="0" y1="0" y2="1">
      <stop offset="0" stop-color="#87CEEB"/>
      <stop offset="1" stop-color="#E0F6FF"/>
    </linearGradient>
    <linearGradient id="building" x1="0" x2="1" y1="0" y2="1">
      <stop offset="0" stop-color="#DC143C"/>
      <stop offset="1" stop-color="#B22222"/>
    </linearGradient>
  </defs>
  <rect width="800" height="600" fill="url(#sky)"/>
  <circle cx="100" cy="90" r="50" fill="#FFD700" opacity="0.9"/>
  <polygon points="400,120 550,380 250,380 320,380 320,480 480,480 480,380" fill="url(#building)" stroke="#8B0000" stroke-width="2"/>
  <polygon points="400,180 500,320 300,320" fill="#FF6347" opacity="0.7"/>
  <g id="window">
    <rect x="270" y="250" width="45" height="45" fill="#87CEEB" stroke="#333" stroke-width="2" rx="3"/>
    <line x1="292.5" y1="250" x2="292.5" y2="295" stroke="#333" stroke-width="1"/>
    <line x1="270" y1="272.5" x2="315" y2="272.5" stroke="#333" stroke-width="1"/>
  </g>
  <use href="#window" x="75" y="0"/>
  <use href="#window" x="150" y="0"/>
  <use href="#window" x="0" y="70"/>
  <use href="#window" x="75" y="70"/>
  <use href="#window" x="150" y="70"/>
  <text x="400" y="540" font-family="Georgia, serif" font-size="36" font-weight="bold" fill="#1C1C1C" text-anchor="middle">MARRIOTT MARQUIS</text>
</svg>