<svg xmlns="http://www.w3.org/2000/svg" width="800" height="600" viewBox="0 0 800 600">
  <defs>
    <linearGradient id="sky" x1="0" x2="0" y1="0" y2="1">
      <stop offset="0" stop-color="#1e90ff"/>
      <stop offset="1" stop-color="#87CEEB"/>
    </linearGradient>
    <linearGradient id="building" x1="0" x2="1" y1="0" y2="1">
      <stop offset="0" stop-color="#DC143C"/>
      <stop offset="1" stop-color="#8B0000"/>
    </linearGradient>
  </defs>
  <rect width="800" height="600" fill="url(#sky)"/>
  <rect x="120" y="180" width="560" height="380" fill="url(#building)" rx="12"/>
  <rect x="140" y="200" width="520" height="60" fill="#FFD700"/>
  <text x="400" y="250" font-family="Georgia, serif" font-size="52" font-weight="bold" fill="#FFF" text-anchor="middle">THE PLAZA</text>
  <g id="window">
    <rect x="200" y="290" width="45" height="45" fill="#E0F6FF" stroke="#333" stroke-width="2" rx="3"/>
    <line x1="222.5" y1="290" x2="222.5" y2="335" stroke="#333" stroke-width="1.5"/>
    <line x1="200" y1="312.5" x2="245" y2="312.5" stroke="#333" stroke-width="1.5"/>
  </g>
  <use href="#window" x="70" y="0"/>
  <use href="#window" x="140" y="0"/>
  <use href="#window" x="210" y="0"/>
  <use href="#window" x="280" y="0"/>
  <use href="#window" x="350" y="0"/>
  <g id="window2">
    <rect x="200" y="360" width="45" height="45" fill="#E0F6FF" stroke="#333" stroke-width="2" rx="3"/>
    <line x1="222.5" y1="360" x2="222.5" y2="405" stroke="#333" stroke-width="1.5"/>
    <line x1="200" y1="382.5" x2="245" y2="382.5" stroke="#333" stroke-width="1.5"/>
  </g>
  <use href="#window2" x="70" y="0"/>
  <use href="#window2" x="140" y="0"/>
  <use href="#window2" x="210" y="0"/>
  <use href="#window2" x="280" y="0"/>
  <use href="#window2" x="350" y="0"/>
  <circle cx="80" cy="100" r="50" fill="#FFA500" opacity="0.85"/>
</svg>